<?xml version="1.0" encoding="UTF-8"?>
<svg width="100px" height="100px" viewBox="0 0 100 100" version="1.1" xmlns="http://www.w3.org/2000/svg" xmlns:xlink="http://www.w3.org/1999/xlink">
    <!-- Generator: Sketch 51.2 (57519) - http://www.bohemiancoding.com/sketch -->
    <title>drawing</title>
    <desc>Created with Sketch.</desc>
    <defs></defs>
    <g id="drawing" stroke="none" stroke-width="1" fill="none" fill-rule="evenodd">
        <g id="Icon/Drawing/Black" transform="translate(11.000000, 4.000000)" fill="#263238">
            <path d="M14.2314,58.7246 L23.0004,66.9166 L68.0604,18.6936 L59.2934,10.5006 L14.2314,58.7246 Z M21.7304,71.2046 L10.0394,60.2816 C9.2324,59.5276 9.1894,58.2616 9.9434,57.4546 L57.7354,6.3086 C58.4904,5.5016 59.7554,5.4586 60.5624,6.2126 L72.2524,17.1366 C73.0594,17.8906 73.1024,19.1566 72.3484,19.9626 L24.5564,71.1096 C23.8024,71.9166 22.5374,71.9586 21.7304,71.2046 Z" id="Fill-1"></path>
            <polygon id="Fill-3" points="18.7119 65.6475 15.7889 62.9175 63.5809 11.7705 66.5039 14.5015"></polygon>
            <path d="M12.1152,62.2207 L6.0512,76.2687 L19.6542,69.2657 L12.1152,62.2207 Z M0.6352,82.0637 C0.0172,81.4867 -0.1698,80.5847 0.1642,79.8097 L9.5682,58.0277 C9.8272,57.4297 10.3592,56.9957 10.9962,56.8627 C11.6332,56.7297 12.2952,56.9147 12.7702,57.3587 L24.4612,68.2827 C24.9362,68.7267 25.1662,69.3747 25.0772,70.0197 C24.9862,70.6637 24.5902,71.2247 24.0112,71.5227 L2.9162,82.3807 C2.1642,82.7667 1.2522,82.6397 0.6352,82.0637 Z" id="Fill-5"></path>
            <polygon id="Fill-7" points="6.957 71.0869 1.689 80.9349 11.158 75.0129"></polygon>
            <path d="M62.0234,7.5781 L70.7924,15.7711 L71.8154,14.6751 C73.1564,13.2411 73.4964,11.4551 72.5894,10.6081 L67.0524,5.4341 C66.1464,4.5881 64.3874,5.0481 63.0474,6.4821 L62.0234,7.5781 Z M70.9834,21.4251 L56.3704,7.7691 L60.1254,3.7511 C63.0444,0.6271 67.1964,0.0941 69.7844,2.5121 L75.3214,7.6851 C77.9084,10.1031 77.6574,14.2821 74.7384,17.4061 L70.9834,21.4251 Z" id="Fill-9"></path>
            <path d="M18.877,91.9795 C8.011,91.9795 1.416,86.7295 1.357,86.1725 C1.253,85.1795 2.646,83.0415 3.523,83.0255 C4.175,83.0125 16.419,94.0875 37.248,82.7945 C60.054,70.4305 76.671,82.1265 76.927,82.9385 C77.217,83.8575 75.925,86.0755 74.98,86.2645 C74.229,86.4155 59.69,75.0545 38.753,86.4085 C31.06,90.5795 24.379,91.9795 18.877,91.9795" id="Fill-12"></path>
        </g>
    </g>
</svg>